<?xml version="1.0" encoding="iso-8859-1"?>
<!-- Generator: Adobe Illustrator 19.0.0, SVG Export Plug-In . SVG Version: 6.00 Build 0)  -->
<svg version="1.1" xmlns="http://www.w3.org/2000/svg" xmlns:xlink="http://www.w3.org/1999/xlink" x="0px" y="0px"
	 viewBox="0 0 520 520" style="enable-background:new 0 0 520 520;" xml:space="preserve">
<g id="_x38_97_x2C__Chip_x2C__Computer_x2C__Future_x2C__Smart_x2C__Tech">
	<g>
		<g>
			<path style="fill:#C4D3D6;" d="M462.5,187.5h-20c-2.762,0-5-2.239-5-5s2.238-5,5-5h20c2.762,0,5,2.239,5,5
				S465.262,187.5,462.5,187.5z"/>
			<path style="fill:#C4D3D6;" d="M462.5,247.5h-20c-2.762,0-5-2.239-5-5s2.238-5,5-5h20c2.762,0,5,2.239,5,5
				S465.262,247.5,462.5,247.5z"/>
			<path style="fill:#C4D3D6;" d="M462.5,307.5h-20c-2.762,0-5-2.238-5-5s2.238-5,5-5h20c2.762,0,5,2.238,5,5
				S465.262,307.5,462.5,307.5z"/>
			<path style="fill:#C4D3D6;" d="M462.5,367.5h-20c-2.762,0-5-2.238-5-5s2.238-5,5-5h20c2.762,0,5,2.238,5,5
				S465.262,367.5,462.5,367.5z"/>
			<path style="fill:#C4D3D6;" d="M82.5,187.5h-20c-2.761,0-5-2.239-5-5s2.239-5,5-5h20c2.761,0,5,2.239,5,5
				S85.261,187.5,82.5,187.5z"/>
			<path style="fill:#C4D3D6;" d="M82.5,247.5h-20c-2.761,0-5-2.239-5-5s2.239-5,5-5h20c2.761,0,5,2.239,5,5
				S85.261,247.5,82.5,247.5z"/>
			<path style="fill:#C4D3D6;" d="M82.5,307.5h-20c-2.761,0-5-2.238-5-5s2.239-5,5-5h20c2.761,0,5,2.238,5,5
				S85.261,307.5,82.5,307.5z"/>
			<path style="fill:#C4D3D6;" d="M82.5,367.5h-20c-2.761,0-5-2.238-5-5s2.239-5,5-5h20c2.761,0,5,2.238,5,5
				S85.261,367.5,82.5,367.5z"/>
			<path style="fill:#C4D3D6;" d="M172.5,99.5c-2.761,0-5-2.239-5-5v-20c0-2.761,2.239-5,5-5s5,2.239,5,5v20
				C177.5,97.261,175.261,99.5,172.5,99.5z"/>
			<path style="fill:#C4D3D6;" d="M232.5,99.5c-2.761,0-5-2.239-5-5v-20c0-2.761,2.239-5,5-5s5,2.239,5,5v20
				C237.5,97.261,235.261,99.5,232.5,99.5z"/>
			<path style="fill:#C4D3D6;" d="M292.5,99.5c-2.762,0-5-2.239-5-5v-20c0-2.761,2.238-5,5-5c2.762,0,5,2.239,5,5v20
				C297.5,97.261,295.262,99.5,292.5,99.5z"/>
			<path style="fill:#C4D3D6;" d="M352.5,99.5c-2.762,0-5-2.239-5-5v-20c0-2.761,2.238-5,5-5c2.762,0,5,2.239,5,5v20
				C357.5,97.261,355.262,99.5,352.5,99.5z"/>
			<path style="fill:#C4D3D6;" d="M172.5,475.5c-2.761,0-5-2.238-5-5v-20c0-2.762,2.239-5,5-5s5,2.238,5,5v20
				C177.5,473.262,175.261,475.5,172.5,475.5z"/>
			<path style="fill:#C4D3D6;" d="M232.5,475.5c-2.761,0-5-2.238-5-5v-20c0-2.762,2.239-5,5-5s5,2.238,5,5v20
				C237.5,473.262,235.261,475.5,232.5,475.5z"/>
			<path style="fill:#C4D3D6;" d="M292.5,475.5c-2.762,0-5-2.238-5-5v-20c0-2.762,2.238-5,5-5c2.762,0,5,2.238,5,5v20
				C297.5,473.262,295.262,475.5,292.5,475.5z"/>
			<path style="fill:#C4D3D6;" d="M352.5,475.5c-2.762,0-5-2.238-5-5v-20c0-2.762,2.238-5,5-5c2.762,0,5,2.238,5,5v20
				C357.5,473.262,355.262,475.5,352.5,475.5z"/>
			<circle style="fill:#F47B00;" cx="442.5" cy="80" r="30"/>
			<path style="fill:#F47B00;" d="M82.5,435c11.05,0,20,8.95,20,20s-8.95,20-20,20s-20-8.95-20-20S71.45,435,82.5,435z"/>
			<path style="fill:#6EC030;" d="M182.5,104.5v10h-20v-10c0-5.52,4.48-10,10-10c2.76,0,5.26,1.12,7.07,2.93
				C181.38,99.24,182.5,101.74,182.5,104.5z"/>
			<path style="fill:#6EC030;" d="M242.5,104.5v10h-20v-10c0-5.52,4.48-10,10-10c2.76,0,5.26,1.12,7.07,2.93
				C241.38,99.24,242.5,101.74,242.5,104.5z"/>
			<path style="fill:#6EC030;" d="M302.5,104.5v10h-20v-10c0-5.52,4.48-10,10-10c2.76,0,5.26,1.12,7.07,2.93
				C301.38,99.24,302.5,101.74,302.5,104.5z"/>
			<path style="fill:#6EC030;" d="M362.5,104.5v10h-20v-10c0-5.52,4.48-10,10-10c2.76,0,5.26,1.12,7.07,2.93
				C361.38,99.24,362.5,101.74,362.5,104.5z"/>
			<path style="fill:#6EC030;" d="M432.5,172.5c5.52,0,10,4.48,10,10c0,2.76-1.12,5.26-2.93,7.07c-1.81,1.81-4.31,2.93-7.07,2.93
				h-10v-20H432.5z"/>
			<path style="fill:#6EC030;" d="M432.5,232.5c5.52,0,10,4.48,10,10c0,2.76-1.12,5.26-2.93,7.07c-1.81,1.81-4.31,2.93-7.07,2.93
				h-10v-20H432.5z"/>
			<path style="fill:#6EC030;" d="M432.5,292.5c5.52,0,10,4.48,10,10c0,2.76-1.12,5.26-2.93,7.07c-1.81,1.81-4.31,2.93-7.07,2.93
				h-10v-20H432.5z"/>
			<path style="fill:#6EC030;" d="M432.5,352.5c5.52,0,10,4.48,10,10c0,2.76-1.12,5.26-2.93,7.07c-1.81,1.81-4.31,2.93-7.07,2.93
				h-10v-20H432.5z"/>
			<path style="fill:#6EC030;" d="M362.5,430.5v10c0,2.76-1.12,5.26-2.93,7.07c-1.81,1.81-4.31,2.93-7.07,2.93
				c-5.52,0-10-4.48-10-10v-10H362.5z"/>
			<path style="fill:#6EC030;" d="M302.5,430.5v10c0,2.76-1.12,5.26-2.93,7.07c-1.81,1.81-4.31,2.93-7.07,2.93
				c-5.52,0-10-4.48-10-10v-10H302.5z"/>
			<path style="fill:#6EC030;" d="M242.5,430.5v10c0,2.76-1.12,5.26-2.93,7.07c-1.81,1.81-4.31,2.93-7.07,2.93
				c-5.52,0-10-4.48-10-10v-10H242.5z"/>
			<path style="fill:#6EC030;" d="M182.5,430.5v10c0,2.76-1.12,5.26-2.93,7.07c-1.81,1.81-4.31,2.93-7.07,2.93
				c-5.52,0-10-4.48-10-10v-10H182.5z"/>
			<path style="fill:#6EC030;" d="M102.5,352.5v20h-10c-2.76,0-5.26-1.12-7.07-2.93c-1.81-1.811-2.93-4.311-2.93-7.07
				c0-5.52,4.48-10,10-10H102.5z"/>
			<path style="fill:#6EC030;" d="M102.5,292.5v20h-10c-2.76,0-5.26-1.12-7.07-2.93c-1.81-1.811-2.93-4.311-2.93-7.07
				c0-5.52,4.48-10,10-10H102.5z"/>
			<path style="fill:#6EC030;" d="M102.5,232.5v20h-10c-2.76,0-5.26-1.12-7.07-2.93c-1.81-1.81-2.93-4.31-2.93-7.07
				c0-5.52,4.48-10,10-10H102.5z"/>
			<path style="fill:#6EC030;" d="M102.5,172.5v20h-10c-2.76,0-5.26-1.12-7.07-2.93c-1.81-1.81-2.93-4.31-2.93-7.07
				c0-5.52,4.48-10,10-10H102.5z"/>
			<polygon style="fill:#33383F;" points="122.5,164.33 122.5,202.5 102.5,202.5 102.5,192.5 102.5,172.5 102.5,162.5 122.5,162.5 
							"/>
			<polygon style="fill:#33383F;" points="122.5,222.5 122.5,262.5 102.5,262.5 102.5,252.5 102.5,232.5 102.5,222.5 			"/>
			<polygon style="fill:#33383F;" points="122.5,282.5 122.5,322.5 102.5,322.5 102.5,312.5 102.5,292.5 102.5,282.5 			"/>
			<polygon style="fill:#33383F;" points="122.5,380.67 122.5,382.5 102.5,382.5 102.5,372.5 102.5,352.5 102.5,342.5 122.5,342.5 
							"/>
			<polygon style="fill:#33383F;" points="192.5,410.5 192.5,430.5 182.5,430.5 162.5,430.5 152.5,430.5 152.5,410.5 			"/>
			<polygon style="fill:#33383F;" points="252.5,410.5 252.5,430.5 242.5,430.5 222.5,430.5 212.5,430.5 212.5,410.5 			"/>
			<polygon style="fill:#33383F;" points="312.5,410.5 312.5,430.5 302.5,430.5 282.5,430.5 272.5,430.5 272.5,410.5 			"/>
			<polygon style="fill:#33383F;" points="372.5,410.5 372.5,430.5 362.5,430.5 342.5,430.5 332.5,430.5 332.5,410.5 			"/>
			<circle style="fill:#6938FF;" cx="465" cy="132.5" r="7.5"/>
			<circle style="fill:#6938FF;" cx="465" cy="407.5" r="7.5"/>
			<polygon style="fill:#33383F;" points="422.5,372.5 422.5,382.5 402.5,382.5 402.5,380.67 402.5,342.5 422.5,342.5 422.5,352.5 
							"/>
			<polygon style="fill:#33383F;" points="422.5,312.5 422.5,322.5 402.5,322.5 402.5,282.5 422.5,282.5 422.5,292.5 			"/>
			<polygon style="fill:#33383F;" points="422.5,252.5 422.5,262.5 402.5,262.5 402.5,222.5 422.5,222.5 422.5,232.5 			"/>
			<polygon style="fill:#33383F;" points="422.5,192.5 422.5,202.5 402.5,202.5 402.5,164.33 402.5,162.5 422.5,162.5 422.5,172.5 
							"/>
			<circle style="fill:#6938FF;" cx="415" cy="472.5" r="7.5"/>
			<polygon style="fill:#33383F;" points="372.5,114.5 372.5,134.5 332.5,134.5 332.5,114.5 342.5,114.5 362.5,114.5 			"/>
			<circle style="fill:#6938FF;" cx="340" cy="42.5" r="7.5"/>
			<polygon style="fill:#33383F;" points="312.5,114.5 312.5,134.5 272.5,134.5 272.5,114.5 282.5,114.5 302.5,114.5 			"/>
			<polygon style="fill:#33383F;" points="252.5,114.5 252.5,134.5 212.5,134.5 212.5,114.5 222.5,114.5 242.5,114.5 			"/>
			<polygon style="fill:#33383F;" points="192.5,114.5 192.5,134.5 152.5,134.5 152.5,114.5 162.5,114.5 182.5,114.5 			"/>
			<circle style="fill:#6938FF;" cx="145" cy="42.5" r="7.5"/>
			<circle style="fill:#6938FF;" cx="140" cy="477.5" r="7.5"/>
			<circle style="fill:#6938FF;" cx="65" cy="117.5" r="7.5"/>
			<circle style="fill:#6938FF;" cx="55" cy="402.5" r="7.5"/>
			<path style="fill:#6EC030;" d="M373.719,133.186c-93.918,0-127.413,0-222.438,0c-16.627,0-30.114,13.487-30.114,30.114
				c0,26.596,0,195.847,0,218.4c0,16.627,13.487,30.114,30.114,30.114c66.965,0,155.51,0,222.438,0
				c16.627,0,30.115-13.487,30.115-30.114c0-23.826,0-190.834,0-218.4C403.834,146.673,390.346,133.186,373.719,133.186z"/>
			<path style="fill:#E1EBEF;" d="M370,160c6.9,0,12.5,5.6,12.5,12.5S376.9,185,370,185c-6.9,0-12.5-5.6-12.5-12.5
				S363.1,160,370,160z"/>
			<path style="fill:#E1EBEF;" d="M370,360c6.9,0,12.5,5.6,12.5,12.5S376.9,385,370,385c-6.9,0-12.5-5.6-12.5-12.5
				S363.1,360,370,360z"/>
			<path style="fill:#378900;" d="M357.5,172.5h-190c0,6.9-5.6,12.5-12.5,12.5v175c6.9,0,12.5,5.6,12.5,12.5h190
				c0-6.9,5.6-12.5,12.5-12.5V185C363.1,185,357.5,179.4,357.5,172.5z"/>
			<path style="fill:#E1EBEF;" d="M337.5,219.33v106.34c0,10.67-8.66,19.33-19.33,19.33H206.83c-10.67,0-19.33-8.66-19.33-19.33
				V219.33c0-10.67,8.66-19.33,19.33-19.33h111.34C328.84,200,337.5,208.66,337.5,219.33z"/>
			<path style="fill:#E1EBEF;" d="M155,160c6.9,0,12.5,5.6,12.5,12.5S161.9,185,155,185s-12.5-5.6-12.5-12.5S148.1,160,155,160z"/>
			<path style="fill:#E1EBEF;" d="M155,360c6.9,0,12.5,5.6,12.5,12.5S161.9,385,155,385s-12.5-5.6-12.5-12.5S148.1,360,155,360z"/>
			<path style="fill:#4A78FF;" d="M317.5,305h-110c-2.761,0-5-2.238-5-5s2.239-5,5-5h110c2.762,0,5,2.238,5,5S320.262,305,317.5,305
				z"/>
			<path style="fill:#4A78FF;" d="M317.5,285h-110c-2.761,0-5-2.238-5-5s2.239-5,5-5h110c2.762,0,5,2.238,5,5S320.262,285,317.5,285
				z"/>
			<path style="fill:#4A78FF;" d="M317.5,265h-110c-2.761,0-5-2.238-5-5s2.239-5,5-5h110c2.762,0,5,2.238,5,5S320.262,265,317.5,265
				z"/>
			<path style="fill:#4A78FF;" d="M317.5,245h-110c-2.761,0-5-2.239-5-5s2.239-5,5-5h110c2.762,0,5,2.239,5,5S320.262,245,317.5,245
				z"/>
		</g>
		<g>
			<path style="fill:#C4D3D6;" d="M462.5,187.5h-20c-2.762,0-5-2.239-5-5s2.238-5,5-5h20c2.762,0,5,2.239,5,5
				S465.262,187.5,462.5,187.5z"/>
			<path style="fill:#C4D3D6;" d="M462.5,247.5h-20c-2.762,0-5-2.239-5-5s2.238-5,5-5h20c2.762,0,5,2.239,5,5
				S465.262,247.5,462.5,247.5z"/>
			<path style="fill:#C4D3D6;" d="M462.5,307.5h-20c-2.762,0-5-2.238-5-5s2.238-5,5-5h20c2.762,0,5,2.238,5,5
				S465.262,307.5,462.5,307.5z"/>
			<path style="fill:#C4D3D6;" d="M462.5,367.5h-20c-2.762,0-5-2.238-5-5s2.238-5,5-5h20c2.762,0,5,2.238,5,5
				S465.262,367.5,462.5,367.5z"/>
			<path style="fill:#C4D3D6;" d="M82.5,187.5h-20c-2.761,0-5-2.239-5-5s2.239-5,5-5h20c2.761,0,5,2.239,5,5
				S85.261,187.5,82.5,187.5z"/>
			<path style="fill:#C4D3D6;" d="M82.5,247.5h-20c-2.761,0-5-2.239-5-5s2.239-5,5-5h20c2.761,0,5,2.239,5,5
				S85.261,247.5,82.5,247.5z"/>
			<path style="fill:#C4D3D6;" d="M82.5,307.5h-20c-2.761,0-5-2.238-5-5s2.239-5,5-5h20c2.761,0,5,2.238,5,5
				S85.261,307.5,82.5,307.5z"/>
			<path style="fill:#C4D3D6;" d="M82.5,367.5h-20c-2.761,0-5-2.238-5-5s2.239-5,5-5h20c2.761,0,5,2.238,5,5
				S85.261,367.5,82.5,367.5z"/>
			<path style="fill:#C4D3D6;" d="M172.5,99.5c-2.761,0-5-2.239-5-5v-20c0-2.761,2.239-5,5-5s5,2.239,5,5v20
				C177.5,97.261,175.261,99.5,172.5,99.5z"/>
			<path style="fill:#C4D3D6;" d="M232.5,99.5c-2.761,0-5-2.239-5-5v-20c0-2.761,2.239-5,5-5s5,2.239,5,5v20
				C237.5,97.261,235.261,99.5,232.5,99.5z"/>
			<path style="fill:#C4D3D6;" d="M292.5,99.5c-2.762,0-5-2.239-5-5v-20c0-2.761,2.238-5,5-5c2.762,0,5,2.239,5,5v20
				C297.5,97.261,295.262,99.5,292.5,99.5z"/>
			<path style="fill:#C4D3D6;" d="M352.5,99.5c-2.762,0-5-2.239-5-5v-20c0-2.761,2.238-5,5-5c2.762,0,5,2.239,5,5v20
				C357.5,97.261,355.262,99.5,352.5,99.5z"/>
			<path style="fill:#C4D3D6;" d="M172.5,475.5c-2.761,0-5-2.238-5-5v-20c0-2.762,2.239-5,5-5s5,2.238,5,5v20
				C177.5,473.262,175.261,475.5,172.5,475.5z"/>
			<path style="fill:#C4D3D6;" d="M232.5,475.5c-2.761,0-5-2.238-5-5v-20c0-2.762,2.239-5,5-5s5,2.238,5,5v20
				C237.5,473.262,235.261,475.5,232.5,475.5z"/>
			<path style="fill:#C4D3D6;" d="M292.5,475.5c-2.762,0-5-2.238-5-5v-20c0-2.762,2.238-5,5-5c2.762,0,5,2.238,5,5v20
				C297.5,473.262,295.262,475.5,292.5,475.5z"/>
			<path style="fill:#C4D3D6;" d="M352.5,475.5c-2.762,0-5-2.238-5-5v-20c0-2.762,2.238-5,5-5c2.762,0,5,2.238,5,5v20
				C357.5,473.262,355.262,475.5,352.5,475.5z"/>
			<circle style="fill:#F47B00;" cx="442.5" cy="80" r="30"/>
			<path style="fill:#F47B00;" d="M82.5,435c11.05,0,20,8.95,20,20s-8.95,20-20,20s-20-8.95-20-20S71.45,435,82.5,435z"/>
			<path style="fill:#6EC030;" d="M182.5,104.5v10h-20v-10c0-5.52,4.48-10,10-10c2.76,0,5.26,1.12,7.07,2.93
				C181.38,99.24,182.5,101.74,182.5,104.5z"/>
			<path style="fill:#6EC030;" d="M242.5,104.5v10h-20v-10c0-5.52,4.48-10,10-10c2.76,0,5.26,1.12,7.07,2.93
				C241.38,99.24,242.5,101.74,242.5,104.5z"/>
			<path style="fill:#6EC030;" d="M302.5,104.5v10h-20v-10c0-5.52,4.48-10,10-10c2.76,0,5.26,1.12,7.07,2.93
				C301.38,99.24,302.5,101.74,302.5,104.5z"/>
			<path style="fill:#6EC030;" d="M362.5,104.5v10h-20v-10c0-5.52,4.48-10,10-10c2.76,0,5.26,1.12,7.07,2.93
				C361.38,99.24,362.5,101.74,362.5,104.5z"/>
			<path style="fill:#6EC030;" d="M432.5,172.5c5.52,0,10,4.48,10,10c0,2.76-1.12,5.26-2.93,7.07c-1.81,1.81-4.31,2.93-7.07,2.93
				h-10v-20H432.5z"/>
			<path style="fill:#6EC030;" d="M432.5,232.5c5.52,0,10,4.48,10,10c0,2.76-1.12,5.26-2.93,7.07c-1.81,1.81-4.31,2.93-7.07,2.93
				h-10v-20H432.5z"/>
			<path style="fill:#6EC030;" d="M432.5,292.5c5.52,0,10,4.48,10,10c0,2.76-1.12,5.26-2.93,7.07c-1.81,1.81-4.31,2.93-7.07,2.93
				h-10v-20H432.5z"/>
			<path style="fill:#6EC030;" d="M432.5,352.5c5.52,0,10,4.48,10,10c0,2.76-1.12,5.26-2.93,7.07c-1.81,1.81-4.31,2.93-7.07,2.93
				h-10v-20H432.5z"/>
			<path style="fill:#6EC030;" d="M362.5,430.5v10c0,2.76-1.12,5.26-2.93,7.07c-1.81,1.81-4.31,2.93-7.07,2.93
				c-5.52,0-10-4.48-10-10v-10H362.5z"/>
			<path style="fill:#6EC030;" d="M302.5,430.5v10c0,2.76-1.12,5.26-2.93,7.07c-1.81,1.81-4.31,2.93-7.07,2.93
				c-5.52,0-10-4.48-10-10v-10H302.5z"/>
			<path style="fill:#6EC030;" d="M242.5,430.5v10c0,2.76-1.12,5.26-2.93,7.07c-1.81,1.81-4.31,2.93-7.07,2.93
				c-5.52,0-10-4.48-10-10v-10H242.5z"/>
			<path style="fill:#6EC030;" d="M182.5,430.5v10c0,2.76-1.12,5.26-2.93,7.07c-1.81,1.81-4.31,2.93-7.07,2.93
				c-5.52,0-10-4.48-10-10v-10H182.5z"/>
			<path style="fill:#6EC030;" d="M102.5,352.5v20h-10c-2.76,0-5.26-1.12-7.07-2.93c-1.81-1.811-2.93-4.311-2.93-7.07
				c0-5.52,4.48-10,10-10H102.5z"/>
			<path style="fill:#6EC030;" d="M102.5,292.5v20h-10c-2.76,0-5.26-1.12-7.07-2.93c-1.81-1.811-2.93-4.311-2.93-7.07
				c0-5.52,4.48-10,10-10H102.5z"/>
			<path style="fill:#6EC030;" d="M102.5,232.5v20h-10c-2.76,0-5.26-1.12-7.07-2.93c-1.81-1.81-2.93-4.31-2.93-7.07
				c0-5.52,4.48-10,10-10H102.5z"/>
			<path style="fill:#6EC030;" d="M102.5,172.5v20h-10c-2.76,0-5.26-1.12-7.07-2.93c-1.81-1.81-2.93-4.31-2.93-7.07
				c0-5.52,4.48-10,10-10H102.5z"/>
			<polygon style="fill:#33383F;" points="122.5,164.33 122.5,202.5 102.5,202.5 102.5,192.5 102.5,172.5 102.5,162.5 122.5,162.5 
							"/>
			<polygon style="fill:#33383F;" points="122.5,222.5 122.5,262.5 102.5,262.5 102.5,252.5 102.5,232.5 102.5,222.5 			"/>
			<polygon style="fill:#33383F;" points="122.5,282.5 122.5,322.5 102.5,322.5 102.5,312.5 102.5,292.5 102.5,282.5 			"/>
			<polygon style="fill:#33383F;" points="122.5,380.67 122.5,382.5 102.5,382.5 102.5,372.5 102.5,352.5 102.5,342.5 122.5,342.5 
							"/>
			<polygon style="fill:#33383F;" points="192.5,410.5 192.5,430.5 182.5,430.5 162.5,430.5 152.5,430.5 152.5,410.5 			"/>
			<polygon style="fill:#33383F;" points="252.5,410.5 252.5,430.5 242.5,430.5 222.5,430.5 212.5,430.5 212.5,410.5 			"/>
			<polygon style="fill:#33383F;" points="312.5,410.5 312.5,430.5 302.5,430.5 282.5,430.5 272.5,430.5 272.5,410.5 			"/>
			<polygon style="fill:#33383F;" points="372.5,410.5 372.5,430.5 362.5,430.5 342.5,430.5 332.5,430.5 332.5,410.5 			"/>
			<circle style="fill:#6938FF;" cx="465" cy="132.5" r="7.5"/>
			<circle style="fill:#6938FF;" cx="465" cy="407.5" r="7.5"/>
			<polygon style="fill:#33383F;" points="422.5,372.5 422.5,382.5 402.5,382.5 402.5,380.67 402.5,342.5 422.5,342.5 422.5,352.5 
							"/>
			<polygon style="fill:#33383F;" points="422.5,312.5 422.5,322.5 402.5,322.5 402.5,282.5 422.5,282.5 422.5,292.5 			"/>
			<polygon style="fill:#33383F;" points="422.5,252.5 422.5,262.5 402.5,262.5 402.5,222.5 422.5,222.5 422.5,232.5 			"/>
			<polygon style="fill:#33383F;" points="422.5,192.5 422.5,202.5 402.5,202.5 402.5,164.33 402.5,162.5 422.5,162.5 422.5,172.5 
							"/>
			<circle style="fill:#6938FF;" cx="415" cy="472.5" r="7.5"/>
			<polygon style="fill:#33383F;" points="372.5,114.5 372.5,134.5 332.5,134.5 332.5,114.5 342.5,114.5 362.5,114.5 			"/>
			<circle style="fill:#6938FF;" cx="340" cy="42.5" r="7.5"/>
			<polygon style="fill:#33383F;" points="312.5,114.5 312.5,134.5 272.5,134.5 272.5,114.5 282.5,114.5 302.5,114.5 			"/>
			<polygon style="fill:#33383F;" points="252.5,114.5 252.5,134.5 212.5,134.5 212.5,114.5 222.5,114.5 242.5,114.5 			"/>
			<polygon style="fill:#33383F;" points="192.5,114.5 192.5,134.5 152.5,134.5 152.5,114.5 162.5,114.5 182.5,114.5 			"/>
			<circle style="fill:#6938FF;" cx="145" cy="42.5" r="7.5"/>
			<circle style="fill:#6938FF;" cx="140" cy="477.5" r="7.5"/>
			<circle style="fill:#6938FF;" cx="65" cy="117.5" r="7.5"/>
			<circle style="fill:#6938FF;" cx="55" cy="402.5" r="7.5"/>
			<path style="fill:#6EC030;" d="M373.719,133.186c-93.918,0-127.413,0-222.438,0c-16.627,0-30.114,13.487-30.114,30.114
				c0,26.596,0,195.847,0,218.4c0,16.627,13.487,30.114,30.114,30.114c66.965,0,155.51,0,222.438,0
				c16.627,0,30.115-13.487,30.115-30.114c0-23.826,0-190.834,0-218.4C403.834,146.673,390.346,133.186,373.719,133.186z"/>
			<path style="fill:#E1EBEF;" d="M370,160c6.9,0,12.5,5.6,12.5,12.5S376.9,185,370,185c-6.9,0-12.5-5.6-12.5-12.5
				S363.1,160,370,160z"/>
			<path style="fill:#E1EBEF;" d="M370,360c6.9,0,12.5,5.6,12.5,12.5S376.9,385,370,385c-6.9,0-12.5-5.6-12.5-12.5
				S363.1,360,370,360z"/>
			<path style="fill:#378900;" d="M357.5,172.5h-190c0,6.9-5.6,12.5-12.5,12.5v175c6.9,0,12.5,5.6,12.5,12.5h190
				c0-6.9,5.6-12.5,12.5-12.5V185C363.1,185,357.5,179.4,357.5,172.5z"/>
			<path style="fill:#E1EBEF;" d="M337.5,219.33v106.34c0,10.67-8.66,19.33-19.33,19.33H206.83c-10.67,0-19.33-8.66-19.33-19.33
				V219.33c0-10.67,8.66-19.33,19.33-19.33h111.34C328.84,200,337.5,208.66,337.5,219.33z"/>
			<path style="fill:#E1EBEF;" d="M155,160c6.9,0,12.5,5.6,12.5,12.5S161.9,185,155,185s-12.5-5.6-12.5-12.5S148.1,160,155,160z"/>
			<path style="fill:#E1EBEF;" d="M155,360c6.9,0,12.5,5.6,12.5,12.5S161.9,385,155,385s-12.5-5.6-12.5-12.5S148.1,360,155,360z"/>
			<path style="fill:#4A78FF;" d="M317.5,305h-110c-2.761,0-5-2.238-5-5s2.239-5,5-5h110c2.762,0,5,2.238,5,5S320.262,305,317.5,305
				z"/>
			<path style="fill:#4A78FF;" d="M317.5,285h-110c-2.761,0-5-2.238-5-5s2.239-5,5-5h110c2.762,0,5,2.238,5,5S320.262,285,317.5,285
				z"/>
			<path style="fill:#4A78FF;" d="M317.5,265h-110c-2.761,0-5-2.238-5-5s2.239-5,5-5h110c2.762,0,5,2.238,5,5S320.262,265,317.5,265
				z"/>
			<path style="fill:#4A78FF;" d="M317.5,245h-110c-2.761,0-5-2.239-5-5s2.239-5,5-5h110c2.762,0,5,2.239,5,5S320.262,245,317.5,245
				z"/>
		</g>
	</g>
</g>
<g id="Layer_1">
</g>
</svg>
