<?xml version="1.0" encoding="UTF-8" standalone="no"?> <svg id="filloutline" xmlns="http://www.w3.org/2000/svg" viewBox="0 0 64 64"><path d="M54.033,14H9.967A2.967,2.967,0,0,0,7,16.967V43.033A2.967,2.967,0,0,0,9.967,46H26v7H22l-2,8H44l-2-8H38V46H54.033A2.967,2.967,0,0,0,57,43.033V16.967A2.967,2.967,0,0,0,54.033,14Z" style="fill:#7c9faf"/><rect x="7" y="14" width="50" height="28" rx="2.967" ry="2.967" style="fill:#2bb3ce"/><rect x="26" y="46" width="12" height="10" style="fill:#3a5565"/><rect x="23.5" y="26.5" width="17" height="2" transform="translate(-7.325 42.79) rotate(-61.921)" style="fill:#fff"/><path d="M39.64,33.769l-1.28-1.538L43.438,28,38.36,23.769l1.28-1.538,6,5a1,1,0,0,1,0,1.538Z" style="fill:#fff"/><path d="M24.36,33.769l-6-5a1,1,0,0,1,0-1.538l6-5,1.28,1.538L20.562,28l5.078,4.231Z" style="fill:#fff"/><rect x="45" y="33" width="8" height="2" style="fill:#fff"/><rect x="25.5" y="26.5" width="17" height="2" transform="translate(-6.267 44.554) rotate(-61.921)" style="fill:#fff"/><path d="M41.64,33.769l-1.28-1.538L45.438,28,40.36,23.769l1.28-1.538,6,5a1,1,0,0,1,0,1.538Z" style="fill:#fff"/><path d="M26.36,33.769l-6-5a1,1,0,0,1,0-1.538l6-5,1.28,1.538L22.562,28l5.078,4.231Z" style="fill:#fff"/><rect x="47" y="33" width="8" height="2" style="fill:#fff"/><circle cx="32" cy="11" r="8" style="fill:#cde2dd"/><path d="M35.8,7.6,34.2,6.4,32.233,9.023A1.977,1.977,0,0,0,32,9a2,2,0,1,0,1.839,1.214Z" style="fill:#711018"/><path d="M54.033,13H40.768a9,9,0,1,0-17.536,0H9.967A3.971,3.971,0,0,0,6,16.967V43.033A3.971,3.971,0,0,0,9.967,47H25v5H22a1,1,0,0,0-.97.758l-2,8A1,1,0,0,0,20,62H44a1,1,0,0,0,.97-1.242l-2-8A1,1,0,0,0,42,52H39V47H54.033A3.971,3.971,0,0,0,58,43.033V16.967A3.971,3.971,0,0,0,54.033,13ZM32,4a7,7,0,1,1-7,7A7.008,7.008,0,0,1,32,4Zm9.219,50,1.5,6H21.281l1.5-6H25v2a1,1,0,0,0,1,1H38a1,1,0,0,0,1-1V54ZM37,55H27V47H37ZM54.033,45H9.967A1.969,1.969,0,0,1,8,43.033v-.576A3.918,3.918,0,0,0,9.967,43H54.033A3.918,3.918,0,0,0,56,42.457v.576A1.969,1.969,0,0,1,54.033,45Zm0-4H9.967A1.969,1.969,0,0,1,8,39.033V16.967A1.969,1.969,0,0,1,9.967,15H23.95a8.98,8.98,0,0,0,16.1,0H54.033A1.969,1.969,0,0,1,56,16.967V39.033A1.969,1.969,0,0,1,54.033,41Z"/><rect x="23.5" y="26.5" width="17" height="2" transform="translate(-7.325 42.79) rotate(-61.921)"/><path d="M46,28a1,1,0,0,0-.36-.769l-6-5-1.28,1.538L43.438,28,38.36,32.231l1.28,1.538,6-5A1,1,0,0,0,46,28Z"/><path d="M24.36,22.231l-6,5a1,1,0,0,0,0,1.538l6,5,1.28-1.538L20.562,28l5.078-4.231Z"/><rect x="45" y="33" width="8" height="2"/><path d="M32,13a2,2,0,0,0,2-2,1.975,1.975,0,0,0-.162-.785L35.8,7.6,34.2,6.4,32.233,9.024A1.785,1.785,0,0,0,32,9a2,2,0,0,0,0,4Z"/></svg>