<?xml version="1.0" encoding="utf-8"?>
<!-- Generator: Adobe Illustrator 25.2.3, SVG Export Plug-In . SVG Version: 6.00 Build 0)  -->
<svg version="1.1" xmlns="http://www.w3.org/2000/svg" xmlns:xlink="http://www.w3.org/1999/xlink" x="0px" y="0px"
	 viewBox="0 0 64 64" enable-background="new 0 0 64 64" xml:space="preserve">
<g id="Layer_3">
</g>
<g id="Layer_4">
</g>
<g id="Layer_5">
</g>
<g id="Layer_6">
</g>
<g id="Layer_7">
</g>
<g id="Layer_8">
</g>
<g id="Layer_9">
</g>
<g id="Layer_10">
</g>
<g id="Layer_11">
</g>
<g id="Layer_12">
</g>
<g id="Layer_13">
</g>
<g id="Layer_14">
</g>
<g id="Layer_15">
</g>
<g id="Layer_16">
</g>
<g id="Layer_17">
</g>
<g id="Layer_18">
</g>
<g id="Layer_19">
</g>
<g id="Layer_20">
</g>
<g id="Layer_21">
	<g>
		<polyline fill="#E43C4C" points="2,14 23,8 2,2 		"/>
		<polygon fill="#FD515D" points="2,2 2,12 19.5,7 		"/>
		<polyline fill="#739327" points="14,36 2,36 18,63 63,63 63,36 36,36 		"/>
		<path fill="#91BD31" d="M41,36h-5H19h-5H7c9.918,16.737,27.93,27,47.385,27H63V36H41z"/>
		<path fill="#C3D1E8" d="M39.99,36c0.665,1.474,1.01,3.075,1.01,4.695v0c0,4.453-2.589,8.5-6.633,10.366l0,0
			c-4.23,1.952-8.676,3.4-13.244,4.314l-6.832,1.366l2.161,3.647l5.454-1.091c4.869-0.974,9.625-2.522,14.137-4.604
			C41.484,52.182,45,46.688,45,40.695c0-1.589-0.251-3.18-0.734-4.695L39.99,36z"/>
		<path fill="#F0F3F4" d="M39.99,36c0.665,1.474,1.01,3.074,1.01,4.695c0,4.453-2.589,8.5-6.633,10.366
			c-3.039,1.403-6.192,2.534-9.419,3.405c1.556,0.984,3.16,1.89,4.807,2.714c2.137-0.721,4.241-1.541,6.289-2.486
			C41.484,52.182,45,46.688,45,40.695c0-1.589-0.251-3.18-0.734-4.695H41H39.99z"/>
		<g>
			<circle fill="#C3D1E8" cx="25" cy="36" r="11"/>
			<path fill="#F0F3F4" d="M25,25c-1.606,0-3.126,0.352-4.502,0.97C18.35,27.978,17,30.828,17,34c0,6.075,4.925,11,11,11
				c1.606,0,3.126-0.352,4.502-0.97C34.65,42.022,36,39.172,36,36C36,29.925,31.075,25,25,25z"/>
			<g>
				
					<rect x="17.874" y="40.554" transform="matrix(0.5547 -0.8321 0.8321 0.5547 -25.2395 35.9471)" fill="#383838" width="6.181" height="2"/>
			</g>
			<g>
				
					<rect x="27.967" y="38.224" transform="matrix(0.8321 -0.5547 0.5547 0.8321 -18.1273 23.0294)" fill="#383838" width="2" height="6.452"/>
			</g>
			<g>
				
					<rect x="27.211" y="33.522" transform="matrix(0.9701 -0.2427 0.2427 0.9701 -7.453 8.5323)" fill="#383838" width="7.399" height="2"/>
			</g>
			<g>
				<rect x="24" y="26" fill="#383838" width="2" height="8"/>
			</g>
			<g>
				
					<rect x="18.095" y="31.137" transform="matrix(0.2425 -0.9701 0.9701 0.2425 -19.0288 44.6766)" fill="#383838" width="2" height="6.773"/>
			</g>
			<path fill="#4C4C4C" d="M28.833,25.7C27.638,25.255,26.35,25,25,25c-1.35,0-2.638,0.255-3.833,0.7L25,28L28.833,25.7z"/>
			<path fill="#4C4C4C" d="M35.952,36.952C35.979,36.638,36,36.321,36,36c0-2.544-0.872-4.88-2.322-6.744L33,34L35.952,36.952z"/>
			<path fill="#383838" d="M16.322,29.256C14.872,31.12,14,33.456,14,36c0,0.321,0.021,0.638,0.048,0.952L17,34L16.322,29.256z"/>
			<path fill="#383838" d="M16.097,42.442c1.564,2.158,3.886,3.727,6.581,4.307L20,43L16.097,42.442z"/>
			<path fill="#383838" d="M27.322,46.75c2.695-0.58,5.017-2.149,6.581-4.307L30,43L27.322,46.75z"/>
			<polygon fill="#4C4C4C" points="25,32 21,35 22,40 28,40 29,35 			"/>
			<path fill="#4C4C4C" d="M30,43l-1.405,1.968c1.381-0.076,2.697-0.396,3.897-0.934c0.013-0.012,0.027-0.023,0.04-0.035
				c0.225-0.212,0.438-0.436,0.645-0.666c0.032-0.035,0.067-0.067,0.099-0.103c0.22-0.252,0.427-0.516,0.624-0.786L30,43z"/>
			<g>
				<path fill="#FFFFFF" d="M31.056,32.795c-0.904-0.063-1.518-1.259-2.173-2.345c-0.655-1.086-1.425-2.188-1.059-3.016
					c0.366-0.829,2.649-0.7,3.868,1.323C32.912,30.78,31.959,32.859,31.056,32.795z"/>
			</g>
		</g>
		<g>
			<rect x="1" y="2" fill="#4C4C4C" width="2" height="34"/>
		</g>
	</g>
</g>
<g id="Layer_22">
</g>
<g id="Layer_23">
</g>
<g id="Layer_24">
</g>
<g id="Layer_25">
</g>
<g id="Layer_26">
</g>
<g id="Layer_27">
</g>
<g id="Layer_28">
</g>
<g id="Layer_29">
</g>
<g id="Layer_30">
</g>
<g id="Layer_31">
</g>
<g id="Layer_32">
</g>
<g id="Layer_1" display="none">
</g>
<g id="Layer_2">
</g>
</svg>
